<svg id="svg" version="1.1" xmlns="http://www.w3.org/2000/svg" xmlns:xlink="http://www.w3.org/1999/xlink" width="400" height="400" viewBox="0, 0, 400,400"><g id="svgg"><path id="path0" d="M192.239 94.071 C 182.535 94.801,170.250 97.513,162.600 100.616 C 132.424 112.857,112.857 132.424,100.616 162.600 C 99.913 164.334,98.769 167.608,98.380 169.000 C 98.196 169.660,97.843 170.920,97.596 171.800 C 92.843 188.732,92.677 211.911,97.203 226.800 C 97.370 227.350,97.732 228.610,98.007 229.600 C 98.661 231.955,99.954 235.963,100.426 237.100 C 100.632 237.595,100.970 238.405,101.179 238.900 C 101.387 239.395,101.962 240.790,102.458 242.000 C 110.436 261.490,127.006 280.203,146.483 291.718 C 150.135 293.877,159.352 298.400,160.101 298.400 C 160.397 298.400,160.811 298.560,161.020 298.756 C 161.440 299.149,167.593 301.276,171.134 302.253 C 192.329 308.096,219.365 307.010,236.600 299.624 C 237.040 299.435,238.030 299.054,238.800 298.777 C 259.628 291.278,282.077 271.539,292.911 251.200 C 295.943 245.509,298.400 240.324,298.400 239.620 C 298.400 239.383,298.559 238.877,298.753 238.495 C 299.632 236.767,300.882 233.324,301.620 230.600 C 304.603 219.581,305.594 213.254,305.878 203.400 C 306.124 194.873,305.727 188.963,304.402 181.400 C 303.687 177.322,303.396 176.065,301.829 170.300 C 301.197 167.974,300.135 164.686,299.568 163.300 C 299.366 162.805,299.044 161.995,298.854 161.500 C 289.445 137.060,271.233 117.078,247.400 105.043 C 242.989 102.816,238.516 100.800,237.985 100.800 C 237.767 100.800,237.277 100.629,236.895 100.419 C 236.513 100.209,235.120 99.676,233.800 99.234 C 231.658 98.517,230.040 98.051,225.200 96.756 C 221.237 95.696,213.327 94.512,206.977 94.028 C 200.712 93.551,199.101 93.556,192.239 94.071 M200.000 146.920 C 200.000 169.502,199.885 176.755,199.520 177.120 C 199.147 177.493,199.724 177.600,202.120 177.600 C 203.907 177.600,205.200 177.768,205.200 178.000 C 205.200 178.220,205.740 178.400,206.400 178.400 C 207.060 178.400,207.600 178.580,207.600 178.800 C 207.600 179.020,208.050 179.200,208.600 179.200 C 209.150 179.200,209.600 179.380,209.600 179.600 C 209.600 179.820,209.920 180.000,210.312 180.000 C 210.703 180.000,211.283 180.360,211.600 180.800 C 211.917 181.240,212.397 181.600,212.666 181.600 C 213.304 181.600,218.400 186.696,218.400 187.334 C 218.400 187.603,218.760 188.083,219.200 188.400 C 219.640 188.717,220.000 189.297,220.000 189.688 C 220.000 190.080,220.180 190.400,220.400 190.400 C 220.620 190.400,220.800 190.850,220.800 191.400 C 220.800 191.950,220.980 192.400,221.200 192.400 C 221.420 192.400,221.600 192.940,221.600 193.600 C 221.600 194.260,221.780 194.800,222.000 194.800 C 222.247 194.800,222.400 196.859,222.400 200.176 C 222.400 203.329,222.235 205.655,222.000 205.800 C 221.780 205.936,221.600 206.397,221.600 206.824 C 221.600 207.251,221.420 207.600,221.200 207.600 C 220.980 207.600,220.800 208.050,220.800 208.600 C 220.800 209.150,220.620 209.600,220.400 209.600 C 220.180 209.600,220.000 209.920,220.000 210.312 C 220.000 210.703,219.640 211.283,219.200 211.600 C 218.760 211.917,218.400 212.397,218.400 212.666 C 218.400 213.304,213.304 218.400,212.666 218.400 C 212.397 218.400,211.917 218.760,211.600 219.200 C 211.283 219.640,210.703 220.000,210.312 220.000 C 209.920 220.000,209.600 220.180,209.600 220.400 C 209.600 220.620,209.150 220.800,208.600 220.800 C 208.050 220.800,207.600 220.980,207.600 221.200 C 207.600 221.420,207.161 221.600,206.624 221.600 C 206.087 221.600,205.536 221.780,205.400 222.000 C 205.264 222.220,203.633 222.400,201.776 222.400 C 199.919 222.400,198.400 222.560,198.400 222.756 C 198.400 222.951,198.715 223.086,199.100 223.056 C 199.760 223.003,199.806 224.705,199.903 252.900 L 200.005 282.800 196.468 282.800 C 183.807 282.800,166.694 277.373,155.007 269.652 C 145.313 263.247,134.169 251.952,129.699 244.000 C 129.266 243.230,128.382 241.700,127.736 240.600 C 122.885 232.353,119.640 222.518,117.625 209.954 C 117.076 206.533,117.076 193.467,117.625 190.046 C 122.131 161.958,135.849 141.450,159.200 127.893 C 169.933 121.661,184.704 117.401,196.100 117.251 L 200.000 117.200 200.000 146.920 M183.802 183.998 C 183.403 184.439,183.207 184.800,183.367 184.800 C 183.788 184.800,184.928 183.595,184.712 183.379 C 184.611 183.278,184.202 183.556,183.802 183.998 M183.802 216.002 C 184.202 216.444,184.611 216.722,184.712 216.621 C 184.928 216.405,183.788 215.200,183.367 215.200 C 183.207 215.200,183.403 215.561,183.802 216.002 " stroke="none" fill="#e4221a" fill-rule="evenodd"></path><path id="path1" d="M332.509 49.200 C 333.069 49.640,333.660 50.000,333.824 50.000 C 333.988 50.000,333.707 49.640,333.200 49.200 C 332.693 48.760,332.101 48.400,331.885 48.400 C 331.669 48.400,331.950 48.760,332.509 49.200 M384.180 123.570 C 383.971 123.773,382.900 124.294,381.800 124.728 C 379.018 125.824,370.891 129.145,369.200 129.876 C 368.430 130.209,367.440 130.625,367.000 130.800 C 366.560 130.975,365.570 131.393,364.800 131.728 C 364.030 132.063,362.413 132.726,361.207 133.200 C 360.001 133.674,358.060 134.498,356.895 135.031 C 355.730 135.564,354.704 136.000,354.616 136.000 C 354.475 136.000,333.465 144.657,331.400 145.566 C 328.754 146.731,327.372 147.304,323.600 148.803 C 321.290 149.721,318.680 150.798,317.800 151.197 C 316.920 151.596,314.220 152.728,311.800 153.713 C 296.484 159.944,298.050 158.801,299.633 162.600 C 300.918 165.684,303.238 173.849,304.178 178.600 C 307.492 195.346,307.228 208.040,303.189 226.000 C 301.244 234.649,297.230 244.192,290.834 255.369 C 285.405 264.856,274.819 276.585,264.400 284.656 C 259.892 288.148,257.544 289.650,250.222 293.724 C 241.863 298.375,229.938 302.679,220.800 304.342 C 213.185 305.728,207.464 306.401,203.300 306.401 L 200.000 306.400 200.000 353.263 L 200.000 400.126 212.492 399.887 C 220.742 399.730,225.032 399.505,225.125 399.225 C 225.207 398.980,226.431 398.800,228.010 398.800 C 229.518 398.800,230.864 398.620,231.000 398.400 C 231.136 398.180,232.216 398.000,233.400 398.000 C 234.584 398.000,235.664 397.820,235.800 397.600 C 235.936 397.380,236.937 397.200,238.024 397.200 C 239.111 397.200,240.000 397.020,240.000 396.800 C 240.000 396.580,240.709 396.400,241.576 396.400 C 242.443 396.400,243.264 396.220,243.400 396.000 C 243.536 395.780,244.447 395.600,245.424 395.600 C 246.401 395.600,247.200 395.420,247.200 395.200 C 247.200 394.980,247.920 394.800,248.800 394.800 C 249.680 394.800,250.400 394.620,250.400 394.400 C 250.400 394.180,251.019 394.000,251.776 394.000 C 252.533 394.000,253.264 393.820,253.400 393.600 C 253.536 393.380,254.177 393.200,254.824 393.200 C 255.471 393.200,256.000 393.020,256.000 392.800 C 256.000 392.580,256.630 392.400,257.400 392.400 C 258.170 392.400,258.800 392.241,258.800 392.046 C 258.800 391.851,259.787 391.569,260.994 391.418 C 262.200 391.267,263.291 390.977,263.417 390.772 C 263.544 390.567,264.076 390.400,264.600 390.400 C 265.124 390.400,265.664 390.220,265.800 390.000 C 265.936 389.780,266.399 389.600,266.829 389.600 C 267.259 389.600,267.923 389.441,268.305 389.247 C 268.687 389.052,269.540 388.671,270.200 388.400 C 270.860 388.129,271.713 387.748,272.095 387.553 C 272.477 387.359,273.152 387.200,273.595 387.200 C 274.038 387.200,274.400 387.020,274.400 386.800 C 274.400 386.580,274.760 386.400,275.200 386.400 C 275.640 386.400,276.000 386.220,276.000 386.000 C 276.000 385.780,276.540 385.600,277.200 385.600 C 277.860 385.600,278.400 385.420,278.400 385.200 C 278.400 384.980,278.760 384.800,279.200 384.800 C 279.640 384.800,280.000 384.620,280.000 384.400 C 280.000 384.180,280.360 384.000,280.800 384.000 C 281.240 384.000,281.600 383.820,281.600 383.600 C 281.600 383.380,281.872 383.200,282.205 383.200 C 282.793 383.200,283.218 383.033,285.095 382.062 C 285.587 381.808,286.262 381.600,286.595 381.600 C 286.928 381.600,287.201 381.465,287.201 381.300 C 287.202 381.135,288.192 380.550,289.400 380.000 C 290.608 379.450,291.598 378.865,291.599 378.700 C 291.599 378.535,291.960 378.400,292.400 378.400 C 292.840 378.400,293.200 378.220,293.200 378.000 C 293.200 377.780,293.560 377.600,294.000 377.600 C 294.440 377.600,294.800 377.420,294.800 377.200 C 294.800 376.980,295.036 376.800,295.325 376.800 C 295.613 376.800,296.236 376.440,296.708 376.000 C 297.180 375.560,297.775 375.200,298.029 375.200 C 298.611 375.200,302.553 373.105,302.733 372.700 C 302.807 372.535,303.044 372.400,303.261 372.400 C 303.478 372.400,304.441 371.860,305.400 371.200 C 306.359 370.540,307.297 370.000,307.484 370.000 C 307.671 370.000,308.083 369.640,308.400 369.200 C 308.717 368.760,309.257 368.400,309.600 368.400 C 309.943 368.400,310.483 368.040,310.800 367.600 C 311.117 367.160,311.657 366.800,312.000 366.800 C 312.343 366.800,312.883 366.440,313.200 366.000 C 313.517 365.560,314.057 365.200,314.400 365.200 C 314.743 365.200,315.283 364.840,315.600 364.400 C 315.917 363.960,316.407 363.600,316.688 363.600 C 316.970 363.600,317.200 363.420,317.200 363.200 C 317.200 362.980,317.430 362.800,317.712 362.800 C 317.993 362.800,318.483 362.440,318.800 362.000 C 319.117 361.560,319.625 361.200,319.928 361.200 C 320.231 361.200,320.983 360.660,321.600 360.000 C 322.217 359.340,322.874 358.800,323.061 358.800 C 323.247 358.800,324.188 358.080,325.151 357.200 C 326.113 356.320,327.054 355.600,327.240 355.600 C 327.426 355.600,328.349 354.833,329.289 353.895 C 330.230 352.957,331.630 351.745,332.400 351.201 C 333.170 350.658,335.561 348.410,337.713 346.207 C 342.418 341.389,341.389 342.418,346.207 337.713 C 348.410 335.561,350.658 333.170,351.201 332.400 C 351.745 331.630,352.957 330.230,353.895 329.289 C 354.833 328.349,355.600 327.426,355.600 327.240 C 355.600 327.054,356.320 326.113,357.200 325.151 C 358.080 324.188,358.800 323.247,358.800 323.061 C 358.800 322.874,359.340 322.217,360.000 321.600 C 360.660 320.983,361.200 320.231,361.200 319.928 C 361.200 319.625,361.560 319.117,362.000 318.800 C 362.440 318.483,362.800 317.993,362.800 317.712 C 362.800 317.430,362.980 317.200,363.200 317.200 C 363.420 317.200,363.600 316.970,363.600 316.688 C 363.600 316.407,363.960 315.917,364.400 315.600 C 364.840 315.283,365.200 314.743,365.200 314.400 C 365.200 314.057,365.560 313.517,366.000 313.200 C 366.440 312.883,366.800 312.343,366.800 312.000 C 366.800 311.657,367.160 311.117,367.600 310.800 C 368.040 310.483,368.400 309.943,368.400 309.600 C 368.400 309.257,368.760 308.717,369.200 308.400 C 369.640 308.083,370.000 307.671,370.000 307.484 C 370.000 307.297,370.540 306.359,371.200 305.400 C 371.860 304.441,372.400 303.463,372.400 303.228 C 372.400 302.993,372.580 302.800,372.800 302.800 C 373.020 302.800,373.200 302.440,373.200 302.000 C 373.200 301.560,373.347 301.200,373.526 301.200 C 373.874 301.200,375.200 298.642,375.200 297.970 C 375.200 297.748,375.560 297.180,376.000 296.708 C 376.440 296.236,376.800 295.613,376.800 295.325 C 376.800 295.036,376.980 294.800,377.200 294.800 C 377.420 294.800,377.600 294.440,377.600 294.000 C 377.600 293.560,377.780 293.200,378.000 293.200 C 378.220 293.200,378.400 292.840,378.400 292.400 C 378.400 291.960,378.535 291.599,378.700 291.599 C 378.865 291.598,379.450 290.608,380.000 289.400 C 380.550 288.192,381.135 287.202,381.300 287.201 C 381.465 287.201,381.600 286.928,381.600 286.595 C 381.600 286.262,381.780 285.632,382.000 285.195 C 382.220 284.758,382.580 284.042,382.800 283.605 C 383.020 283.168,383.200 282.538,383.200 282.205 C 383.200 281.872,383.380 281.600,383.600 281.600 C 383.820 281.600,384.000 281.240,384.000 280.800 C 384.000 280.360,384.180 280.000,384.400 280.000 C 384.620 280.000,384.800 279.651,384.800 279.224 C 384.800 278.797,384.980 278.336,385.200 278.200 C 385.420 278.064,385.600 277.513,385.600 276.976 C 385.600 276.439,385.780 276.000,386.000 276.000 C 386.220 276.000,386.400 275.640,386.400 275.200 C 386.400 274.760,386.580 274.400,386.800 274.400 C 387.020 274.400,387.200 274.038,387.200 273.595 C 387.200 273.152,387.359 272.477,387.553 272.095 C 387.748 271.713,388.129 270.860,388.400 270.200 C 388.671 269.540,389.052 268.687,389.247 268.305 C 389.441 267.923,389.600 267.259,389.600 266.829 C 389.600 266.399,389.780 265.936,390.000 265.800 C 390.220 265.664,390.400 265.124,390.400 264.600 C 390.400 264.076,390.567 263.544,390.772 263.417 C 390.977 263.291,391.267 262.200,391.418 260.994 C 391.569 259.787,391.851 258.800,392.046 258.800 C 392.241 258.800,392.400 258.170,392.400 257.400 C 392.400 256.630,392.580 256.000,392.800 256.000 C 393.020 256.000,393.200 255.471,393.200 254.824 C 393.200 254.177,393.380 253.536,393.600 253.400 C 393.820 253.264,394.000 252.533,394.000 251.776 C 394.000 251.019,394.180 250.400,394.400 250.400 C 394.620 250.400,394.800 249.680,394.800 248.800 C 394.800 247.920,394.980 247.200,395.200 247.200 C 395.420 247.200,395.600 246.491,395.600 245.624 C 395.600 244.757,395.780 243.936,396.000 243.800 C 396.220 243.664,396.400 242.753,396.400 241.776 C 396.400 240.799,396.580 240.000,396.800 240.000 C 397.020 240.000,397.200 239.111,397.200 238.024 C 397.200 236.937,397.380 235.936,397.600 235.800 C 397.820 235.664,398.000 234.584,398.000 233.400 C 398.000 232.216,398.180 231.136,398.400 231.000 C 398.620 230.864,398.800 229.518,398.800 228.010 C 398.800 226.171,398.965 225.212,399.300 225.100 C 399.693 224.969,399.800 219.591,399.800 200.000 C 399.800 180.409,399.693 175.031,399.300 174.900 C 398.965 174.788,398.800 173.829,398.800 171.990 C 398.800 170.482,398.620 169.136,398.400 169.000 C 398.180 168.864,398.000 167.784,398.000 166.600 C 398.000 165.416,397.820 164.336,397.600 164.200 C 397.380 164.064,397.200 163.063,397.200 161.976 C 397.200 160.889,397.020 160.000,396.800 160.000 C 396.580 160.000,396.400 159.201,396.400 158.224 C 396.400 157.247,396.220 156.336,396.000 156.200 C 395.780 156.064,395.600 155.243,395.600 154.376 C 395.600 153.509,395.420 152.800,395.200 152.800 C 394.980 152.800,394.800 152.080,394.800 151.200 C 394.800 150.320,394.620 149.600,394.400 149.600 C 394.180 149.600,394.000 148.981,394.000 148.224 C 394.000 147.467,393.820 146.736,393.600 146.600 C 393.380 146.464,393.200 145.823,393.200 145.176 C 393.200 144.529,393.020 144.000,392.800 144.000 C 392.580 144.000,392.400 143.370,392.400 142.600 C 392.400 141.830,392.241 141.200,392.046 141.200 C 391.851 141.200,391.569 140.213,391.418 139.006 C 391.267 137.800,390.977 136.709,390.772 136.583 C 390.567 136.456,390.400 135.924,390.400 135.400 C 390.400 134.876,390.220 134.336,390.000 134.200 C 389.780 134.064,389.600 133.524,389.600 133.000 C 389.600 132.476,389.420 131.936,389.200 131.800 C 388.980 131.664,388.800 131.203,388.800 130.776 C 388.800 130.349,388.620 130.000,388.400 130.000 C 388.180 130.000,388.000 129.638,388.000 129.195 C 388.000 128.752,387.792 127.987,387.538 127.495 C 386.603 125.687,386.400 125.202,386.400 124.777 C 386.400 123.706,384.886 122.883,384.180 123.570 " stroke="none" fill="#040404" fill-rule="evenodd"></path><path id="path2" d="M179.003 0.299 C 177.025 0.373,175.234 0.606,175.023 0.817 C 174.812 1.028,173.517 1.200,172.144 1.200 C 170.771 1.200,169.536 1.380,169.400 1.600 C 169.264 1.820,168.184 2.000,167.000 2.000 C 165.816 2.000,164.736 2.180,164.600 2.400 C 164.464 2.620,163.553 2.800,162.576 2.800 C 161.599 2.800,160.800 2.980,160.800 3.200 C 160.800 3.420,160.026 3.600,159.080 3.600 C 158.134 3.600,157.189 3.762,156.980 3.959 C 156.771 4.156,155.835 4.426,154.900 4.559 C 150.663 5.160,150.000 5.306,150.000 5.642 C 150.000 5.839,149.381 6.000,148.624 6.000 C 147.867 6.000,147.136 6.180,147.000 6.400 C 146.864 6.620,146.223 6.800,145.576 6.800 C 144.929 6.800,144.400 6.980,144.400 7.200 C 144.400 7.420,143.860 7.600,143.200 7.600 C 142.540 7.600,142.000 7.780,142.000 8.000 C 142.000 8.220,141.368 8.400,140.595 8.400 C 139.822 8.400,138.877 8.567,138.495 8.771 C 138.113 8.975,136.810 9.434,135.600 9.790 C 133.639 10.367,128.729 12.158,126.000 13.292 C 125.450 13.520,124.640 13.845,124.200 14.013 C 122.984 14.477,120.340 15.620,119.039 16.244 C 118.400 16.550,117.635 16.800,117.339 16.800 C 117.042 16.800,116.800 16.980,116.800 17.200 C 116.800 17.420,116.555 17.600,116.255 17.600 C 115.956 17.600,114.311 18.320,112.600 19.200 C 110.889 20.080,109.244 20.800,108.945 20.800 C 108.645 20.800,108.400 20.952,108.400 21.137 C 108.400 21.323,107.545 21.908,106.500 22.437 C 105.455 22.967,104.540 23.535,104.467 23.700 C 104.393 23.865,103.988 24.000,103.567 24.000 C 103.145 24.000,102.800 24.180,102.800 24.400 C 102.800 24.620,102.455 24.800,102.033 24.800 C 101.612 24.800,101.207 24.935,101.133 25.100 C 101.060 25.265,100.190 25.810,99.200 26.311 C 97.459 27.193,89.899 31.956,88.917 32.790 C 88.651 33.015,88.261 33.200,88.050 33.200 C 87.839 33.200,87.607 33.345,87.533 33.523 C 87.460 33.701,86.500 34.458,85.400 35.204 C 84.300 35.951,83.162 36.796,82.871 37.081 C 82.581 37.366,82.203 37.600,82.033 37.600 C 81.862 37.600,81.359 37.915,80.915 38.300 C 80.470 38.685,79.514 39.450,78.790 40.000 C 78.066 40.550,77.245 41.225,76.965 41.500 C 76.686 41.775,76.279 42.000,76.062 42.000 C 75.845 42.000,75.607 42.136,75.533 42.303 C 75.460 42.470,74.590 43.232,73.600 43.997 C 72.610 44.762,71.602 45.571,71.359 45.794 C 71.116 46.017,69.856 47.100,68.559 48.200 C 65.554 50.747,50.705 65.577,48.596 68.137 C 47.718 69.203,46.550 70.584,46.000 71.208 C 45.450 71.831,44.550 72.926,44.000 73.641 C 43.450 74.356,42.775 75.166,42.500 75.442 C 42.225 75.717,42.000 76.059,42.000 76.200 C 42.000 76.341,41.775 76.686,41.500 76.965 C 41.225 77.245,40.550 78.070,40.000 78.800 C 39.450 79.530,38.775 80.355,38.500 80.635 C 38.225 80.914,38.000 81.336,38.000 81.571 C 38.000 81.807,37.820 82.000,37.600 82.000 C 37.380 82.000,37.200 82.270,37.200 82.600 C 37.200 82.930,37.065 83.201,36.900 83.202 C 36.735 83.203,35.970 84.192,35.200 85.400 C 34.430 86.608,33.665 87.597,33.500 87.598 C 33.335 87.599,33.200 87.787,33.200 88.016 C 33.200 88.373,31.800 90.601,31.199 91.200 C 31.089 91.310,30.744 91.895,30.432 92.500 C 30.120 93.105,29.715 93.600,29.532 93.600 C 29.350 93.600,29.200 93.784,29.200 94.008 C 29.200 94.232,28.776 95.087,28.258 95.908 C 27.740 96.729,27.268 97.580,27.208 97.800 C 27.149 98.020,26.763 98.629,26.350 99.154 C 25.938 99.679,25.600 100.354,25.600 100.654 C 25.600 100.954,25.420 101.200,25.200 101.200 C 24.980 101.200,24.800 101.560,24.800 102.000 C 24.800 102.440,24.620 102.800,24.400 102.800 C 24.180 102.800,24.000 103.145,24.000 103.567 C 24.000 103.988,23.865 104.393,23.700 104.467 C 23.324 104.634,22.025 106.764,21.729 107.700 C 21.607 108.085,21.348 108.400,21.153 108.400 C 20.959 108.400,20.800 108.627,20.800 108.904 C 20.800 109.182,20.085 110.847,19.210 112.604 C 18.336 114.362,17.616 116.025,17.610 116.300 C 17.605 116.575,17.420 116.800,17.200 116.800 C 16.980 116.800,16.800 117.036,16.800 117.325 C 16.800 117.614,16.440 118.595,16.000 119.506 C 15.560 120.416,15.200 121.440,15.200 121.781 C 15.200 122.121,15.020 122.400,14.800 122.400 C 14.580 122.400,14.400 122.672,14.400 123.005 C 14.400 123.338,14.241 123.923,14.047 124.305 C 13.440 125.499,12.892 126.870,11.373 131.000 C 9.037 137.352,8.420 139.325,8.410 140.476 C 8.404 141.068,8.220 141.664,8.000 141.800 C 7.780 141.936,7.600 142.577,7.600 143.224 C 7.600 143.871,7.420 144.400,7.200 144.400 C 6.980 144.400,6.800 145.030,6.800 145.800 C 6.800 146.570,6.620 147.200,6.400 147.200 C 6.180 147.200,6.000 147.830,6.000 148.600 C 6.000 149.370,5.839 150.000,5.642 150.000 C 5.300 150.000,5.132 150.753,4.569 154.800 C 4.431 155.790,4.156 156.771,3.959 156.980 C 3.762 157.189,3.600 158.033,3.600 158.856 C 3.600 159.679,3.420 160.464,3.200 160.600 C 2.980 160.736,2.800 161.636,2.800 162.600 C 2.800 163.564,2.620 164.464,2.400 164.600 C 2.180 164.736,2.000 165.816,2.000 167.000 C 2.000 168.184,1.820 169.264,1.600 169.400 C 1.380 169.536,1.200 170.771,1.200 172.144 C 1.200 173.607,0.993 174.847,0.700 175.140 C -0.011 175.851,-0.028 223.424,0.682 224.839 C 0.947 225.368,1.262 226.835,1.382 228.100 C 1.932 233.902,2.094 235.025,2.435 235.380 C 2.636 235.589,2.800 236.523,2.800 237.456 C 2.800 238.389,2.980 239.264,3.200 239.400 C 3.420 239.536,3.600 240.447,3.600 241.424 C 3.600 242.401,3.780 243.200,4.000 243.200 C 4.220 243.200,4.400 243.909,4.400 244.776 C 4.400 245.643,4.580 246.464,4.800 246.600 C 5.020 246.736,5.200 247.456,5.200 248.200 C 5.200 248.944,5.380 249.664,5.600 249.800 C 5.820 249.936,6.000 250.656,6.000 251.400 C 6.000 252.144,6.180 252.864,6.400 253.000 C 6.620 253.136,6.800 253.766,6.800 254.400 C 6.800 255.034,6.980 255.664,7.200 255.800 C 7.420 255.936,7.600 256.476,7.600 257.000 C 7.600 257.524,7.780 258.064,8.000 258.200 C 8.220 258.336,8.402 258.842,8.405 259.324 C 8.411 260.345,9.422 263.609,11.217 268.400 C 11.918 270.270,12.582 272.205,12.692 272.700 C 12.803 273.195,13.052 273.600,13.247 273.600 C 13.441 273.600,13.600 273.962,13.600 274.405 C 13.600 274.848,13.759 275.523,13.953 275.905 C 14.148 276.287,14.529 277.140,14.800 277.800 C 15.071 278.460,15.452 279.313,15.647 279.695 C 15.841 280.077,16.000 280.662,16.000 280.995 C 16.000 281.328,16.180 281.600,16.400 281.600 C 16.620 281.600,16.800 281.960,16.800 282.400 C 16.800 282.840,16.980 283.200,17.200 283.200 C 17.420 283.200,17.600 283.452,17.600 283.759 C 17.600 284.067,18.140 285.345,18.800 286.600 C 19.460 287.855,20.000 289.133,20.000 289.441 C 20.000 289.748,20.180 290.000,20.400 290.000 C 20.620 290.000,20.800 290.345,20.800 290.767 C 20.800 291.188,20.935 291.593,21.100 291.667 C 21.265 291.740,21.833 292.655,22.363 293.700 C 22.892 294.745,23.477 295.600,23.663 295.600 C 23.848 295.600,24.000 295.960,24.000 296.400 C 24.000 296.840,24.180 297.200,24.400 297.200 C 24.620 297.200,24.800 297.545,24.800 297.967 C 24.800 298.388,24.935 298.793,25.100 298.867 C 25.265 298.940,25.753 299.720,26.185 300.600 C 26.617 301.480,27.472 302.952,28.085 303.872 C 28.698 304.792,29.200 305.737,29.200 305.972 C 29.200 306.207,29.380 306.400,29.600 306.400 C 29.820 306.400,30.000 306.636,30.000 306.925 C 30.000 307.213,30.315 307.798,30.700 308.225 C 31.085 308.651,31.655 309.495,31.968 310.100 C 32.280 310.705,32.685 311.200,32.868 311.200 C 33.050 311.200,33.200 311.436,33.200 311.725 C 33.200 312.013,33.560 312.636,34.000 313.108 C 34.440 313.580,34.800 314.109,34.801 314.283 C 34.801 314.457,35.341 315.230,36.000 316.000 C 36.659 316.770,37.199 317.543,37.199 317.718 C 37.200 317.893,37.605 318.456,38.100 318.968 C 39.358 320.270,40.400 321.568,40.400 321.833 C 40.400 321.956,40.625 322.285,40.900 322.563 C 41.175 322.841,41.760 323.568,42.200 324.178 C 42.640 324.789,43.183 325.494,43.406 325.744 C 43.629 325.995,44.435 327.010,45.198 328.000 C 45.960 328.990,47.041 330.250,47.600 330.800 C 48.159 331.350,49.242 332.608,50.008 333.596 C 50.774 334.584,52.796 336.744,54.502 338.396 C 56.208 340.048,58.008 341.792,58.502 342.271 C 58.996 342.750,60.606 344.399,62.081 345.937 C 63.556 347.474,65.529 349.332,66.465 350.066 C 67.402 350.800,68.559 351.775,69.037 352.234 C 69.514 352.693,70.781 353.773,71.852 354.634 C 72.923 355.495,74.038 356.426,74.329 356.701 C 74.621 356.977,75.701 357.776,76.730 358.476 C 77.758 359.177,78.891 360.076,79.247 360.475 C 79.603 360.874,80.098 361.200,80.347 361.200 C 80.596 361.200,80.800 361.341,80.800 361.514 C 80.800 361.686,81.295 362.121,81.900 362.479 C 82.505 362.837,83.540 363.596,84.200 364.165 C 84.860 364.734,85.625 365.199,85.900 365.200 C 86.175 365.200,86.400 365.350,86.400 365.532 C 86.400 365.715,86.895 366.120,87.500 366.432 C 88.105 366.745,88.949 367.315,89.375 367.700 C 89.802 368.085,90.304 368.400,90.492 368.400 C 90.680 368.400,91.220 368.760,91.692 369.200 C 92.164 369.640,92.787 370.000,93.075 370.000 C 93.364 370.000,93.600 370.180,93.600 370.400 C 93.600 370.620,93.766 370.800,93.968 370.800 C 94.170 370.800,95.953 371.790,97.930 373.000 C 99.907 374.210,101.811 375.200,102.162 375.200 C 102.513 375.200,102.800 375.380,102.800 375.600 C 102.800 375.820,103.083 376.000,103.428 376.000 C 103.773 376.000,104.841 376.540,105.800 377.200 C 106.759 377.860,107.737 378.400,107.972 378.400 C 108.207 378.400,108.400 378.580,108.400 378.800 C 108.400 379.020,108.634 379.200,108.920 379.200 C 109.656 379.200,111.593 380.141,111.597 380.500 C 111.599 380.665,111.865 380.800,112.188 380.800 C 112.511 380.800,113.417 381.160,114.200 381.600 C 114.983 382.040,115.889 382.400,116.212 382.400 C 116.535 382.400,116.800 382.580,116.800 382.800 C 116.800 383.020,117.160 383.200,117.600 383.200 C 118.040 383.200,118.400 383.380,118.400 383.600 C 118.400 383.820,118.672 384.000,119.004 384.000 C 119.337 384.000,120.372 384.345,121.304 384.766 C 122.237 385.188,123.720 385.772,124.600 386.064 C 125.480 386.357,126.290 386.694,126.400 386.815 C 126.510 386.935,127.410 387.288,128.400 387.600 C 129.390 387.912,130.290 388.271,130.400 388.400 C 130.761 388.820,139.617 391.600,140.596 391.600 C 141.122 391.600,141.664 391.780,141.800 392.000 C 141.936 392.220,142.577 392.400,143.224 392.400 C 143.871 392.400,144.400 392.580,144.400 392.800 C 144.400 393.020,145.019 393.200,145.776 393.200 C 146.533 393.200,147.264 393.380,147.400 393.600 C 147.536 393.820,148.166 394.000,148.800 394.000 C 149.434 394.000,150.064 394.180,150.200 394.400 C 150.336 394.620,151.067 394.800,151.824 394.800 C 152.581 394.800,153.200 394.980,153.200 395.200 C 153.200 395.420,153.999 395.600,154.976 395.600 C 155.953 395.600,156.864 395.780,157.000 396.000 C 157.136 396.220,158.047 396.400,159.024 396.400 C 160.001 396.400,160.800 396.580,160.800 396.800 C 160.800 397.020,161.599 397.200,162.576 397.200 C 163.553 397.200,164.464 397.380,164.600 397.600 C 164.736 397.820,165.791 398.000,166.944 398.000 C 168.097 398.000,169.211 398.165,169.420 398.368 C 169.629 398.570,170.970 398.835,172.400 398.957 C 173.830 399.080,176.890 399.345,179.200 399.547 C 181.510 399.750,187.135 399.934,191.700 399.958 L 200.000 400.000 200.000 353.200 L 200.000 306.400 197.900 306.399 C 193.909 306.398,183.033 305.081,178.400 304.039 C 177.410 303.816,176.060 303.518,175.400 303.377 C 171.663 302.577,161.661 299.365,161.020 298.759 C 160.811 298.562,160.208 298.400,159.680 298.400 C 159.153 298.400,158.064 298.109,157.260 297.752 C 154.342 296.458,150.155 294.351,148.200 293.193 C 147.100 292.541,145.615 291.715,144.900 291.358 C 144.185 291.001,143.600 290.593,143.600 290.452 C 143.600 290.311,143.105 289.970,142.500 289.695 C 137.734 287.526,125.951 277.375,119.390 269.787 C 114.995 264.704,110.000 257.805,110.000 256.818 C 110.000 256.588,109.850 256.400,109.668 256.400 C 109.485 256.400,109.080 255.905,108.768 255.300 C 108.456 254.695,108.111 254.110,108.001 254.000 C 107.726 253.726,106.195 250.833,104.297 247.000 C 103.426 245.240,102.555 243.491,102.361 243.114 C 102.168 242.736,101.843 241.746,101.638 240.914 C 101.434 240.081,100.629 237.600,99.850 235.400 C 98.584 231.826,98.115 230.278,96.756 225.200 C 96.390 223.833,96.020 221.965,95.191 217.300 C 93.262 206.446,93.262 193.554,95.191 182.700 C 96.020 178.035,96.390 176.167,96.756 174.800 C 98.058 169.932,98.518 168.341,99.242 166.200 C 100.079 163.720,100.636 162.305,101.247 161.105 C 101.441 160.723,101.600 160.222,101.600 159.991 C 101.600 159.252,106.689 149.121,108.881 145.497 C 118.221 130.055,130.920 117.483,146.461 108.295 C 149.715 106.371,159.372 101.600,160.012 101.600 C 160.230 101.600,161.172 101.269,162.104 100.865 C 164.117 99.993,167.289 98.856,169.100 98.358 C 169.815 98.161,171.075 97.808,171.900 97.573 C 178.827 95.603,192.113 93.604,198.300 93.601 L 200.000 93.600 200.000 46.800 L 200.000 0.000 191.300 0.082 C 186.515 0.127,180.981 0.225,179.003 0.299 M276.425 15.500 C 276.148 16.105,274.750 19.480,273.320 23.000 C 270.836 29.112,270.323 30.345,269.032 33.300 C 268.720 34.015,267.894 36.040,267.197 37.800 C 266.499 39.560,265.601 41.720,265.200 42.600 C 264.799 43.480,263.901 45.640,263.203 47.400 C 262.506 49.160,261.689 51.140,261.387 51.800 C 261.085 52.460,259.477 56.330,257.813 60.400 C 256.149 64.470,254.628 68.160,254.434 68.600 C 253.292 71.190,252.698 72.622,251.197 76.400 C 250.279 78.710,249.200 81.320,248.799 82.200 C 248.399 83.080,247.499 85.240,246.800 87.000 C 246.101 88.760,245.204 90.920,244.808 91.800 C 241.305 99.575,240.486 102.392,241.724 102.405 C 242.484 102.412,250.411 106.500,255.026 109.265 C 272.914 119.980,288.764 137.866,296.798 156.400 C 298.285 159.832,298.345 159.924,298.722 159.360 C 298.982 158.969,300.642 158.252,311.800 153.713 C 314.220 152.728,316.920 151.596,317.800 151.197 C 318.680 150.798,321.290 149.721,323.600 148.803 C 327.372 147.304,328.754 146.731,331.400 145.566 C 333.465 144.657,354.475 136.000,354.616 136.000 C 354.704 136.000,355.730 135.564,356.895 135.031 C 358.060 134.498,360.001 133.674,361.207 133.200 C 362.413 132.726,364.030 132.063,364.800 131.728 C 365.570 131.393,366.560 130.975,367.000 130.800 C 367.440 130.625,368.430 130.208,369.200 129.873 C 369.970 129.538,372.040 128.695,373.800 128.000 C 377.194 126.658,381.620 124.800,384.095 123.678 C 385.517 123.033,386.064 122.400,385.200 122.400 C 384.980 122.400,384.800 122.119,384.800 121.775 C 384.800 121.145,383.631 118.494,380.755 112.600 C 379.896 110.840,379.195 109.175,379.197 108.900 C 379.199 108.625,379.048 108.400,378.863 108.400 C 378.677 108.400,378.092 107.545,377.563 106.500 C 377.033 105.455,376.465 104.540,376.300 104.467 C 376.135 104.393,376.000 103.988,376.000 103.567 C 376.000 103.145,375.820 102.800,375.600 102.800 C 375.380 102.800,375.200 102.530,375.200 102.201 C 375.200 101.871,374.065 99.756,372.678 97.501 C 371.290 95.245,369.895 92.959,369.578 92.420 C 369.260 91.882,368.685 91.083,368.300 90.645 C 367.915 90.207,367.600 89.613,367.600 89.325 C 367.600 89.036,367.420 88.800,367.200 88.800 C 366.980 88.800,366.800 88.575,366.799 88.300 C 366.799 88.025,366.259 87.170,365.600 86.400 C 364.941 85.630,364.401 84.815,364.401 84.588 C 364.400 84.362,364.040 83.917,363.600 83.600 C 363.160 83.283,362.800 82.838,362.800 82.612 C 362.799 82.385,362.394 81.720,361.900 81.134 C 360.025 78.912,359.731 78.535,358.501 76.791 C 357.806 75.806,356.734 74.425,356.119 73.723 C 355.504 73.020,354.680 72.032,354.289 71.528 C 352.960 69.813,350.605 67.083,348.900 65.281 C 347.965 64.292,347.200 63.427,347.200 63.358 C 347.200 63.289,346.270 62.370,345.134 61.316 C 343.998 60.262,342.693 59.006,342.234 58.524 C 338.334 54.429,335.110 51.265,333.600 50.049 C 332.610 49.252,331.350 48.149,330.800 47.599 C 330.250 47.048,329.170 46.123,328.400 45.544 C 327.630 44.965,326.610 44.155,326.132 43.745 C 325.655 43.335,324.771 42.640,324.166 42.200 C 323.562 41.760,322.841 41.175,322.563 40.900 C 322.285 40.625,321.956 40.400,321.833 40.400 C 321.626 40.400,320.546 39.576,319.455 38.587 C 319.205 38.360,318.370 37.734,317.600 37.198 C 316.830 36.661,315.851 35.902,315.425 35.511 C 314.998 35.120,314.413 34.800,314.125 34.800 C 313.836 34.800,313.600 34.632,313.600 34.427 C 313.600 34.222,313.262 33.947,312.849 33.816 C 312.436 33.684,311.581 33.133,310.949 32.589 C 310.317 32.046,309.575 31.601,309.300 31.600 C 309.025 31.600,308.800 31.449,308.800 31.264 C 308.800 31.080,308.383 30.738,307.874 30.506 C 307.364 30.274,305.879 29.401,304.574 28.566 C 303.268 27.731,302.196 27.127,302.190 27.224 C 302.185 27.321,301.666 26.995,301.036 26.500 C 300.407 26.005,299.646 25.600,299.346 25.600 C 299.046 25.600,298.800 25.420,298.800 25.200 C 298.800 24.980,298.440 24.800,298.000 24.800 C 297.560 24.800,297.200 24.620,297.200 24.400 C 297.200 24.180,296.840 24.000,296.400 24.000 C 295.960 24.000,295.600 23.820,295.600 23.600 C 295.600 23.380,295.322 23.200,294.983 23.200 C 294.644 23.200,293.980 22.840,293.508 22.400 C 293.036 21.960,292.413 21.600,292.125 21.600 C 291.836 21.600,291.600 21.420,291.600 21.200 C 291.600 20.980,291.348 20.800,291.041 20.800 C 290.733 20.800,289.455 20.260,288.200 19.600 C 286.945 18.940,285.667 18.400,285.359 18.400 C 285.052 18.400,284.800 18.220,284.800 18.000 C 284.800 17.780,284.440 17.600,284.000 17.600 C 283.560 17.600,283.200 17.420,283.200 17.200 C 283.200 16.980,282.964 16.800,282.675 16.800 C 282.386 16.800,281.405 16.440,280.494 16.000 C 279.584 15.560,278.560 15.200,278.219 15.200 C 277.879 15.200,277.600 15.020,277.600 14.800 C 277.600 14.014,276.920 14.419,276.425 15.500 M301.656 169.600 C 301.656 169.930,301.811 170.560,302.000 171.000 C 302.217 171.504,302.344 171.578,302.344 171.200 C 302.344 170.870,302.189 170.240,302.000 169.800 C 301.783 169.296,301.656 169.222,301.656 169.600 M302.456 172.400 C 302.456 172.730,302.611 173.360,302.800 173.800 C 303.017 174.304,303.144 174.378,303.144 174.000 C 303.144 173.670,302.989 173.040,302.800 172.600 C 302.583 172.096,302.456 172.022,302.456 172.400 M303.256 175.600 C 303.256 175.930,303.411 176.560,303.600 177.000 C 303.817 177.504,303.944 177.578,303.944 177.200 C 303.944 176.870,303.789 176.240,303.600 175.800 C 303.383 175.296,303.256 175.222,303.256 175.600 M304.087 179.400 C 304.091 179.840,304.232 180.740,304.400 181.400 C 304.674 182.478,304.706 182.498,304.713 181.600 C 304.717 181.050,304.576 180.150,304.400 179.600 C 304.149 178.816,304.081 178.773,304.087 179.400 M305.088 185.400 C 305.211 186.720,305.376 187.875,305.456 187.967 C 305.735 188.289,305.516 184.988,305.193 184.000 C 304.989 183.379,304.949 183.909,305.088 185.400 M305.800 200.000 C 305.800 206.050,305.919 210.100,306.065 209.000 C 306.211 207.900,306.330 203.850,306.330 200.000 C 306.330 196.150,306.211 192.100,306.065 191.000 C 305.919 189.900,305.800 193.950,305.800 200.000 M305.260 213.250 C 305.227 213.828,305.111 214.907,305.001 215.650 L 304.803 217.000 305.224 215.657 C 305.455 214.919,305.572 213.839,305.482 213.257 L 305.320 212.200 305.260 213.250 M304.240 219.240 C 304.093 220.157,304.052 220.985,304.147 221.080 C 304.242 221.176,304.446 220.510,304.600 219.600 C 304.754 218.690,304.796 217.862,304.693 217.760 C 304.590 217.657,304.387 218.323,304.240 219.240 M303.429 223.429 C 303.281 224.015,303.238 224.572,303.332 224.666 C 303.427 224.760,303.624 224.358,303.771 223.771 C 303.919 223.185,303.962 222.628,303.868 222.534 C 303.773 222.440,303.576 222.842,303.429 223.429 M302.629 226.629 C 302.481 227.215,302.451 227.784,302.561 227.894 C 302.671 228.004,302.881 227.615,303.029 227.029 C 303.176 226.442,303.206 225.873,303.096 225.763 C 302.986 225.653,302.776 226.042,302.629 226.629 M294.214 248.635 C 293.841 249.204,293.605 249.738,293.689 249.822 C 293.773 249.907,294.158 249.441,294.544 248.788 C 295.406 247.328,295.148 247.209,294.214 248.635 M287.888 259.280 C 286.396 261.470,285.365 263.145,285.597 263.002 C 286.111 262.684,290.920 255.580,290.733 255.415 C 290.660 255.350,289.379 257.089,287.888 259.280 M282.562 266.500 C 281.281 268.095,280.559 269.138,280.956 268.818 C 281.746 268.183,285.357 263.600,285.068 263.600 C 284.970 263.600,283.842 264.905,282.562 266.500 M278.015 271.741 L 276.229 273.800 278.315 271.815 C 279.462 270.723,280.400 269.778,280.400 269.715 C 280.400 269.251,279.538 269.983,278.015 271.741 M271.068 278.646 C 270.225 279.429,269.607 280.140,269.694 280.227 C 269.781 280.314,270.552 279.669,271.407 278.793 C 273.334 276.819,273.129 276.730,271.068 278.646 M266.200 282.761 C 264.660 284.038,261.526 286.369,259.234 287.941 C 256.943 289.514,255.197 290.800,255.353 290.800 C 256.156 290.800,267.560 282.494,268.788 281.014 C 269.640 279.988,269.124 280.336,266.200 282.761 M248.400 294.436 C 247.736 294.979,247.669 295.115,248.200 294.840 C 249.505 294.166,250.228 293.612,249.800 293.615 C 249.580 293.617,248.950 293.986,248.400 294.436 M226.200 302.800 L 225.400 303.144 226.200 303.166 C 226.640 303.178,227.270 303.013,227.600 302.800 C 228.395 302.286,227.396 302.286,226.200 302.800 M223.000 303.600 L 222.200 303.944 223.000 303.966 C 223.440 303.978,224.070 303.813,224.400 303.600 C 225.195 303.086,224.196 303.086,223.000 303.600 M218.600 304.400 C 217.522 304.674,217.502 304.706,218.400 304.713 C 218.950 304.717,219.850 304.576,220.400 304.400 C 221.744 303.969,220.292 303.969,218.600 304.400 M213.800 305.200 L 212.200 305.486 213.600 305.503 C 214.370 305.513,215.450 305.376,216.000 305.200 C 217.285 304.788,216.099 304.788,213.800 305.200 M204.000 306.000 L 200.200 306.247 203.800 306.294 C 205.780 306.320,208.210 306.197,209.200 306.020 L 211.000 305.700 209.400 305.727 C 208.520 305.741,206.090 305.864,204.000 306.000 " stroke="none" fill="#4c4c4c" fill-rule="evenodd"></path><path id="path3" d="M189.800 117.662 C 166.376 121.173,147.645 132.077,133.714 150.313 C 125.206 161.451,120.248 173.692,117.625 190.046 C 117.076 193.467,117.076 206.533,117.625 209.954 C 119.640 222.518,122.885 232.353,127.736 240.600 C 128.382 241.700,129.266 243.230,129.699 244.000 C 141.661 265.279,171.812 282.800,196.468 282.800 L 200.005 282.800 199.903 252.900 C 199.806 224.705,199.760 223.003,199.100 223.056 C 198.715 223.086,198.400 222.951,198.400 222.756 C 198.400 222.560,197.410 222.400,196.200 222.400 C 194.990 222.400,194.000 222.220,194.000 222.000 C 194.000 221.780,193.460 221.600,192.800 221.600 C 192.140 221.600,191.600 221.420,191.600 221.200 C 191.600 220.980,191.313 220.800,190.962 220.800 C 190.308 220.800,187.906 219.280,187.667 218.714 C 187.593 218.542,187.278 218.400,186.967 218.400 C 186.273 218.400,182.330 214.482,181.344 212.813 C 180.950 212.146,180.486 211.600,180.314 211.600 C 180.141 211.600,180.000 211.366,180.000 211.080 C 180.000 210.344,179.059 208.407,178.700 208.403 C 178.535 208.401,178.400 207.875,178.400 207.233 C 178.400 206.592,178.206 206.002,177.969 205.923 C 177.359 205.720,177.335 194.905,177.944 194.296 C 178.195 194.045,178.400 193.336,178.400 192.720 C 178.400 192.104,178.580 191.600,178.800 191.600 C 179.020 191.600,179.200 191.240,179.200 190.800 C 179.200 190.360,179.380 190.000,179.600 190.000 C 179.820 190.000,180.000 189.717,180.000 189.371 C 180.000 189.026,180.225 188.514,180.500 188.235 C 180.775 187.955,181.450 187.117,182.000 186.371 C 183.290 184.622,185.399 182.400,185.769 182.400 C 185.927 182.400,186.294 182.175,186.584 181.900 C 187.922 180.630,188.857 180.000,189.405 180.000 C 189.732 180.000,190.000 179.820,190.000 179.600 C 190.000 179.380,190.360 179.200,190.800 179.200 C 191.240 179.200,191.600 179.020,191.600 178.800 C 191.600 178.580,192.125 178.400,192.767 178.400 C 193.408 178.400,193.993 178.238,194.067 178.039 C 194.140 177.841,195.280 177.624,196.600 177.556 C 197.920 177.489,199.225 177.269,199.500 177.068 C 199.892 176.781,200.000 170.290,200.000 146.951 L 200.000 117.200 196.100 117.251 C 193.955 117.280,191.120 117.465,189.800 117.662 " stroke="none" fill="#fc443c" fill-rule="evenodd"></path><path id="path4" d="M200.000 46.737 C 200.000 90.505,200.045 93.600,200.677 93.600 C 206.088 93.600,220.183 95.414,225.200 96.756 C 230.068 98.058,231.659 98.518,233.800 99.242 C 235.120 99.688,236.560 100.203,237.000 100.386 C 240.954 102.033,240.513 102.274,242.459 97.400 C 243.162 95.640,244.141 93.300,244.634 92.200 C 245.127 91.100,246.102 88.760,246.801 87.000 C 247.499 85.240,248.399 83.080,248.799 82.200 C 249.200 81.320,250.279 78.710,251.197 76.400 C 252.698 72.622,253.292 71.190,254.434 68.600 C 254.628 68.160,256.149 64.470,257.813 60.400 C 259.477 56.330,261.085 52.460,261.387 51.800 C 261.689 51.140,262.506 49.160,263.203 47.400 C 263.901 45.640,264.799 43.480,265.200 42.600 C 265.601 41.720,266.499 39.560,267.197 37.800 C 268.333 34.931,268.872 33.641,270.034 31.000 C 270.227 30.560,271.818 26.702,273.568 22.426 C 277.208 13.533,277.272 14.254,272.700 12.774 C 271.215 12.293,270.000 11.742,270.000 11.550 C 270.000 11.357,269.865 11.240,269.700 11.290 C 269.206 11.438,265.596 10.318,265.366 9.945 C 265.249 9.755,264.724 9.600,264.200 9.600 C 263.676 9.600,263.143 9.431,263.016 9.225 C 262.888 9.019,262.473 8.842,262.092 8.830 C 260.493 8.782,258.400 8.287,258.400 7.956 C 258.400 7.760,257.759 7.600,256.976 7.600 C 256.129 7.600,255.653 7.438,255.800 7.200 C 255.947 6.962,255.471 6.800,254.624 6.800 C 253.841 6.800,253.200 6.620,253.200 6.400 C 253.200 6.180,252.491 6.000,251.624 6.000 C 250.757 6.000,249.936 5.820,249.800 5.600 C 249.664 5.380,248.944 5.200,248.200 5.200 C 247.456 5.200,246.736 5.020,246.600 4.800 C 246.464 4.580,245.643 4.400,244.776 4.400 C 243.909 4.400,243.200 4.220,243.200 4.000 C 243.200 3.780,242.426 3.600,241.480 3.600 C 240.534 3.600,239.589 3.438,239.380 3.241 C 239.171 3.044,238.280 2.779,237.400 2.653 C 236.520 2.526,234.630 2.227,233.200 1.987 C 231.770 1.748,229.430 1.456,228.000 1.339 C 226.570 1.222,225.189 0.952,224.930 0.739 C 224.666 0.521,219.127 0.248,212.230 0.113 L 200.000 -0.126 200.000 46.737 M101.613 240.740 C 101.591 241.670,107.095 253.097,108.001 254.000 C 108.111 254.110,108.456 254.695,108.768 255.300 C 109.080 255.905,109.475 256.400,109.646 256.400 C 109.817 256.400,109.309 255.275,108.518 253.900 C 106.603 250.573,103.568 244.680,102.493 242.200 C 102.016 241.100,101.620 240.443,101.613 240.740 M110.013 256.918 C 109.951 258.450,118.833 269.616,125.022 275.787 C 130.713 281.462,142.353 290.580,143.036 289.898 C 143.131 289.802,141.992 288.914,140.505 287.925 C 130.588 281.331,120.467 271.435,113.559 261.578 C 110.131 256.687,110.027 256.552,110.013 256.918 M143.600 290.365 C 143.600 290.554,144.185 291.001,144.900 291.358 C 145.615 291.715,147.100 292.541,148.200 293.193 C 151.302 295.030,158.364 298.410,159.060 298.391 C 159.247 298.385,156.790 297.069,153.600 295.466 C 150.410 293.863,146.855 291.982,145.700 291.286 C 144.545 290.590,143.600 290.176,143.600 290.365 " stroke="none" fill="#848282" fill-rule="evenodd"></path></g></svg>